<svg width="24" height="14" viewBox="0 0 24 14" fill="none" xmlns="http://www.w3.org/2000/svg">
<path d="M24 13.588C23.6507 13.7201 23.2651 13.7198 22.916 13.5872C22.5669 13.4546 22.2785 13.1988 22.105 12.868L18.655 8.09702L18.155 7.43002L14.152 12.874C13.989 13.1909 13.7162 13.4375 13.3845 13.5678C13.0529 13.6981 12.6851 13.7032 12.35 13.582L17.508 6.66202L12.71 0.411023C13.055 0.286698 13.4323 0.28505 13.7784 0.406356C14.1244 0.527662 14.4181 0.764512 14.61 1.07702L18.186 5.90702L21.782 1.09702C21.9463 0.78581 22.2192 0.545811 22.5488 0.422652C22.8785 0.299492 23.2419 0.30176 23.57 0.429023L21.708 2.90002L19.186 6.18302C19.116 6.2455 19.0599 6.32207 19.0216 6.40772C18.9832 6.49337 18.9633 6.58617 18.9633 6.68002C18.9633 6.77388 18.9832 6.86667 19.0216 6.95232C19.0599 7.03797 19.116 7.11455 19.186 7.17702L23.99 13.589L24 13.588ZM0.002012 6.57602L0.422012 4.50102C1.57601 0.398024 6.28001 -1.30898 9.51601 1.23102C11.411 2.72002 11.884 4.82802 11.791 7.20402H1.11601C0.943012 11.447 4.00501 14.009 7.92001 12.7C8.55467 12.4716 9.12275 12.0893 9.57337 11.5873C10.024 11.0854 10.3431 10.4796 10.502 9.82402C10.709 9.15802 11.05 9.04402 11.676 9.23602C11.5717 10.0484 11.2845 10.8266 10.8361 11.5119C10.3876 12.1973 9.78963 12.7721 9.08701 13.193C7.92643 13.8279 6.59484 14.0795 5.28264 13.9119C3.97043 13.7443 2.74481 13.1661 1.78101 12.26C0.828041 11.1874 0.252088 9.83252 0.141012 8.40202C0.141012 8.16702 0.061012 7.94702 0.007012 7.73602C0.00214403 7.34971 -0.000189357 6.96337 1.19963e-05 6.57702L0.002012 6.57602ZM1.12901 6.29002H10.783C10.723 3.21402 8.78201 1.03202 6.19301 1.01202C3.31101 0.972023 1.24901 3.10602 1.12201 6.27602L1.12901 6.29002Z" fill="url(#paint0_linear_357_2853)"/>
<defs>
<linearGradient id="paint0_linear_357_2853" x1="12" y1="0.0366211" x2="12" y2="13.9624" gradientUnits="userSpaceOnUse">
<stop stop-color="#B4481A"/>
<stop offset="1" stop-color="#FF7438"/>
</linearGradient>
</defs>
</svg>
