<svg width="113" height="149" viewBox="0 0 113 149" fill="none" xmlns="http://www.w3.org/2000/svg">
<path d="M56.5 149C56.5 149 0.625 96.0491 0.625 55.875C0.625 41.056 6.51182 26.844 16.9904 16.3654C27.469 5.88681 41.681 0 56.5 0C71.319 0 85.531 5.88681 96.0096 16.3654C106.488 26.844 112.375 41.056 112.375 55.875C112.375 96.0491 56.5 149 56.5 149ZM56.5 83.8125C63.9095 83.8125 71.0155 80.8691 76.2548 75.6298C81.4941 70.3905 84.4375 63.2845 84.4375 55.875C84.4375 48.4655 81.4941 41.3595 76.2548 36.1202C71.0155 30.8809 63.9095 27.9375 56.5 27.9375C49.0905 27.9375 41.9845 30.8809 36.7452 36.1202C31.5059 41.3595 28.5625 48.4655 28.5625 55.875C28.5625 63.2845 31.5059 70.3905 36.7452 75.6298C41.9845 80.8691 49.0905 83.8125 56.5 83.8125Z" fill="url(#paint0_linear_556_15)"/>
<defs>
<linearGradient id="paint0_linear_556_15" x1="56.5" y1="0" x2="56.5" y2="149" gradientUnits="userSpaceOnUse">
<stop stop-color="#B4481A"/>
<stop offset="1" stop-color="#FF7438"/>
</linearGradient>
</defs>
</svg>
