<svg width="22" height="24" viewBox="0 0 22 24" fill="none" xmlns="http://www.w3.org/2000/svg">
<path d="M11.002 0C10.4349 0 9.89093 0.225306 9.48989 0.626352C9.08884 1.0274 8.86353 1.57133 8.86353 2.1385C8.86353 2.70567 9.08884 3.2496 9.48989 3.65065C9.89093 4.05169 10.4349 4.277 11.002 4.277C11.5692 4.277 12.1131 4.05169 12.5142 3.65065C12.9152 3.2496 13.1405 2.70567 13.1405 2.1385C13.1405 1.57133 12.9152 1.0274 12.5142 0.626352C12.1131 0.225306 11.5692 0 11.002 0ZM19.542 4.931C18.9749 4.931 18.4309 5.15631 18.0299 5.55735C17.6288 5.9584 17.4035 6.50233 17.4035 7.0695C17.4035 7.63667 17.6288 8.1806 18.0299 8.58165C18.4309 8.98269 18.9749 9.208 19.542 9.208C20.1092 9.208 20.6531 8.98269 21.0542 8.58165C21.4552 8.1806 21.6805 7.63667 21.6805 7.0695C21.6805 6.50233 21.4552 5.9584 21.0542 5.55735C20.6531 5.15631 20.1092 4.931 19.542 4.931ZM19.542 14.793C18.9749 14.793 18.4309 15.0183 18.0299 15.4194C17.6288 15.8204 17.4035 16.3643 17.4035 16.9315C17.4035 17.4987 17.6288 18.0426 18.0299 18.4436C18.4309 18.8447 18.9749 19.07 19.542 19.07C20.1092 19.07 20.6531 18.8447 21.0542 18.4436C21.4552 18.0426 21.6805 17.4987 21.6805 16.9315C21.6805 16.3643 21.4552 15.8204 21.0542 15.4194C20.6531 15.0183 20.1092 14.793 19.542 14.793ZM11.002 19.724C10.435 19.724 9.89119 19.9493 9.49024 20.3502C9.08929 20.7512 8.86403 21.295 8.86403 21.862C8.86403 22.429 9.08929 22.9728 9.49024 23.3738C9.89119 23.7747 10.435 24 11.002 24C11.5691 24 12.1129 23.7747 12.5138 23.3738C12.9148 22.9728 13.14 22.429 13.14 21.862C13.14 21.295 12.9148 20.7512 12.5138 20.3502C12.1129 19.9493 11.5691 19.724 11.002 19.724ZM2.46003 14.794C2.17927 14.794 1.90125 14.8493 1.64186 14.9567C1.38246 15.0642 1.14677 15.2217 0.948239 15.4202C0.749707 15.6187 0.592223 15.8544 0.484779 16.1138C0.377334 16.3732 0.322033 16.6512 0.322033 16.932C0.322033 17.2128 0.377334 17.4908 0.484779 17.7502C0.592223 18.0096 0.749707 18.2453 0.948239 18.4438C1.14677 18.6423 1.38246 18.7998 1.64186 18.9073C1.90125 19.0147 2.17927 19.07 2.46003 19.07C3.0272 19.07 3.57113 18.8447 3.97218 18.4436C4.37323 18.0426 4.59853 17.4987 4.59853 16.9315C4.59853 16.3643 4.37323 15.8204 3.97218 15.4194C3.57113 15.0183 3.0272 14.794 2.46003 14.794ZM2.46003 4.931C1.89287 4.931 1.34893 5.15631 0.947885 5.55735C0.546839 5.9584 0.321533 6.50233 0.321533 7.0695C0.321533 7.63667 0.546839 8.1806 0.947885 8.58165C1.34893 8.98269 1.89287 9.208 2.46003 9.208C3.0272 9.208 3.57113 8.98269 3.97218 8.58165C4.37323 8.1806 4.59853 7.63667 4.59853 7.0695C4.59853 6.50233 4.37323 5.9584 3.97218 5.55735C3.57113 5.15631 3.0272 4.931 2.46003 4.931ZM11.002 1.553L1.95303 6.777V17.225L11.002 22.449L20.049 17.225V6.777L11.002 1.553ZM11.002 3.154L18.662 16.424H3.34003L11.002 3.154ZM9.61503 3.525L2.97003 15.037V7.363L9.61503 3.525ZM12.389 3.525L19.035 7.363V15.037L12.389 3.525ZM4.35503 17.44H17.648L11.002 21.276L4.35503 17.44Z" fill="url(#paint0_linear_357_2857)"/>
<defs>
<linearGradient id="paint0_linear_357_2857" x1="11.001" y1="0" x2="11.001" y2="24" gradientUnits="userSpaceOnUse">
<stop stop-color="#B4481A"/>
<stop offset="1" stop-color="#FF7438"/>
</linearGradient>
</defs>
</svg>
