<svg width="24" height="25" viewBox="0 0 24 25" fill="none" xmlns="http://www.w3.org/2000/svg">
<mask id="mask0_92_970" style="mask-type:alpha" maskUnits="userSpaceOnUse" x="0" y="0" width="24" height="25">
<rect width="24" height="25" rx="2" fill="#D9D9D9"/>
</mask>
<g mask="url(#mask0_92_970)">
<path d="M0 0H24V25H0V0ZM22.034 19.0375C21.859 17.8969 21.146 16.9385 19.031 16.0448C18.295 15.6854 17.477 15.4354 17.234 14.8573C17.143 14.5135 17.129 14.326 17.188 14.1229C17.338 13.45 18.103 13.2479 18.703 13.4354C19.093 13.5604 19.453 13.8729 19.679 14.3729C20.713 13.6687 20.713 13.6687 21.434 13.201C21.164 12.7635 21.03 12.575 20.848 12.3885C20.218 11.6542 19.379 11.2792 18.014 11.3115L17.309 11.4042C16.633 11.576 15.989 11.951 15.599 12.451C14.459 13.7958 14.788 16.1396 16.168 17.1083C17.533 18.1708 19.529 18.4042 19.784 19.4052C20.024 20.624 18.914 21.0146 17.818 20.874C17.007 20.6865 16.558 20.2635 16.063 19.4823L14.233 20.5771C14.443 21.0771 14.683 21.2948 15.043 21.7323C16.783 23.5615 21.133 23.4677 21.914 20.6865C21.943 20.5927 22.154 19.9521 21.988 18.9677L22.034 19.0375ZM13.051 11.4906H10.803C10.803 13.5094 10.794 15.5156 10.794 17.5375C10.794 18.8208 10.857 19.999 10.656 20.3615C10.326 21.0792 9.476 20.9875 9.09 20.8615C8.694 20.6573 8.493 20.376 8.26 19.9708C8.197 19.8615 8.15 19.7667 8.133 19.7667L6.308 20.9385C6.613 21.5948 7.058 22.1594 7.632 22.5187C8.487 23.05 9.636 23.2219 10.839 22.9406C11.622 22.7052 12.297 22.2208 12.65 21.4708C13.16 20.5021 13.052 19.3146 13.047 17.9854C13.059 15.8458 13.047 13.7052 13.047 11.549L13.051 11.4906Z" fill="url(#paint0_linear_92_970)"/>
</g>
<defs>
<linearGradient id="paint0_linear_92_970" x1="12" y1="0" x2="12" y2="25" gradientUnits="userSpaceOnUse">
<stop stop-color="#B4481A"/>
<stop offset="1" stop-color="#FF7438"/>
</linearGradient>
</defs>
</svg>
