<svg width="25" height="25" viewBox="0 0 25 25" fill="none" xmlns="http://www.w3.org/2000/svg">
<path d="M2.29946 0C1.52246 0 0.897461 0.651042 0.897461 1.46042V23.5396C0.897461 24.349 1.52246 25 2.29946 25H23.4955C24.2725 25 24.8975 24.349 24.8975 23.5396V1.46042C24.8975 0.651042 24.2725 0 23.4955 0H2.29946ZM5.18146 5.69271H8.21946V19.3052H5.18146V18.2781H7.04446V6.71875H5.18146V5.69271ZM17.5755 5.69271H20.6135V6.71875H18.7505V18.2792H20.6135V19.3062H17.5755V5.69271ZM9.71946 9.39062H11.0695C11.1775 9.85 11.3035 10.3427 11.4475 10.8677C11.6005 11.3833 11.7575 11.899 11.9195 12.4146C12.0905 12.9208 12.2615 13.4125 12.4325 13.8906C12.6035 14.3698 12.7655 14.7958 12.9185 15.1708C13.0715 14.7958 13.2335 14.3687 13.4045 13.8906C13.5755 13.4125 13.7425 12.9208 13.9045 12.4146C14.0745 11.899 14.2325 11.3833 14.3765 10.8677C14.5295 10.3427 14.6605 9.85 14.7685 9.39062H16.0645C15.724 10.7271 15.3093 12.0418 14.8225 13.3281C14.4015 14.4676 13.9467 15.5932 13.4585 16.7031H12.3245C11.8355 15.5917 11.3763 14.4662 10.9475 13.3281C10.4693 12.04 10.0593 10.7255 9.71946 9.39062Z" fill="url(#paint0_linear_53_765)"/>
<defs>
<linearGradient id="paint0_linear_53_765" x1="12.8975" y1="0" x2="12.8975" y2="25" gradientUnits="userSpaceOnUse">
<stop stop-color="#B4481A"/>
<stop offset="1" stop-color="#FF7438"/>
</linearGradient>
</defs>
</svg>
