<svg width="12" height="24" viewBox="0 0 12 24" fill="none" xmlns="http://www.w3.org/2000/svg">
<path d="M11.1929 9.555C9.92894 3.975 6.94094 2.141 6.61994 1.44C6.33994 1.046 6.08994 0.486 5.88494 0C5.84894 0.495 5.82994 0.685 5.36194 1.184C4.63894 1.75 0.92394 4.866 0.62194 11.204C0.33994 17.116 4.89194 20.639 5.50994 21.088L5.57994 21.138C5.70863 22.0898 5.81865 23.0439 5.90994 24H6.39094C6.50494 22.968 6.67494 21.944 6.90094 20.93C7.31794 20.634 7.50494 20.467 7.75094 20.237C8.9159 19.1593 9.84172 17.8491 10.4686 16.3911C11.0954 14.9332 11.4093 13.3599 11.3899 11.773C11.3999 10.959 11.2869 10.111 11.1929 9.555ZM5.85694 17.75C5.85694 17.75 5.85694 9.459 6.13194 9.46C6.34494 9.46 6.62194 20.155 6.62194 20.155C6.24094 20.11 5.85694 18.395 5.85694 17.75Z" fill="url(#paint0_linear_357_2849)"/>
<defs>
<linearGradient id="paint0_linear_357_2849" x1="6.00008" y1="0" x2="6.00008" y2="24" gradientUnits="userSpaceOnUse">
<stop stop-color="#B4481A"/>
<stop offset="1" stop-color="#FF7438"/>
</linearGradient>
</defs>
</svg>
