<svg width="20" height="24" viewBox="0 0 20 24" fill="none" xmlns="http://www.w3.org/2000/svg">
<path d="M19.8068 18.2848L11.5528 0.756487C11.3458 0.318287 10.9138 0.0291868 10.4242 0.00238684C9.92192 -0.0269132 9.47193 0.215387 9.21803 0.627687L0.266025 15.1271C-0.0112755 15.5789 -0.0057755 16.1362 0.281825 16.5826L4.65772 23.3612C4.91852 23.7658 5.37042 24 5.84002 24C5.97322 24 6.10702 23.9812 6.23872 23.9423L18.9406 20.1855C19.3297 20.0704 19.6478 19.7951 19.8143 19.4302C19.9808 19.0653 19.9776 18.6474 19.8068 18.2848ZM17.9587 19.0367L7.18142 22.2242C6.85222 22.3217 6.53662 22.0369 6.60582 21.7048L10.4559 3.26619C10.5279 2.92139 11.0045 2.86659 11.1549 3.18589L18.2837 18.3239C18.4181 18.6095 18.2647 18.9463 17.9587 19.0367Z" fill="url(#paint0_linear_357_2851)"/>
<defs>
<linearGradient id="paint0_linear_357_2851" x1="9.99955" y1="0" x2="9.99955" y2="24" gradientUnits="userSpaceOnUse">
<stop stop-color="#B4481A"/>
<stop offset="1" stop-color="#FF7438"/>
</linearGradient>
</defs>
</svg>
