<svg width="26" height="25" viewBox="0 0 26 25" fill="none" xmlns="http://www.w3.org/2000/svg">
<path d="M15.5881 0.184266L16.5095 0.389007L17.2568 0.65517L17.8608 0.96228L18.3214 1.28987L18.6695 1.63792L18.9254 1.98598L19.0892 2.3238L19.1916 2.63092L19.2325 2.89708L19.253 3.10182L19.2428 3.2349V8.70147L19.1916 9.3464L19.0585 9.90944L18.8435 10.3803L18.5774 10.7694L18.2702 11.0867L17.9324 11.3426L17.5741 11.5371L17.2158 11.6804L16.878 11.7828L16.5709 11.8545L16.3047 11.8954L16.0898 11.9159H9.97826L9.2719 11.9671L8.66792 12.1104L8.15607 12.3356L7.73635 12.612L7.39853 12.9396L7.12213 13.2979L6.91739 13.6664L6.76383 14.0452L6.66146 14.4035L6.5898 14.7311L6.54885 15.0075L6.52838 15.2225V18.355H4.24552L4.03055 18.3243L3.74391 18.2526L3.41632 18.1298L3.05803 17.9455L2.6895 17.6793L2.32096 17.3108L1.96267 16.8399L1.63508 16.2359L1.34845 15.4886L1.13347 14.5878L0.99015 13.5129L0.938965 12.2537L1.00039 11.0048L1.16418 9.94015L1.40987 9.04953L1.73745 8.3227L2.10599 7.73919L2.51547 7.28876L2.94542 6.95094L3.37538 6.70525L3.78486 6.54146L4.15339 6.43909L4.48098 6.3879L4.72666 6.37767H4.89046L4.95188 6.3879H13.3053V5.53823H7.32687L7.31663 2.72305L7.29616 2.34428L7.34734 1.99622L7.45995 1.67887L7.63398 1.39224L7.8899 1.12607L8.20725 0.890621L8.59626 0.685881L9.04669 0.501614L9.56878 0.348059L10.1625 0.225215L10.8177 0.122844L11.5445 0.0614221L12.3328 0.020474L13.1927 0L14.4928 0.0511851L15.5881 0.184266ZM9.13882 2.2112L8.90337 2.54902L8.82147 2.96874L8.90337 3.38846L9.13882 3.73651L9.47664 3.96173L9.89636 4.05386L10.3161 3.96173L10.6539 3.73651L10.8894 3.38846L10.9712 2.96874L10.8894 2.54902L10.6539 2.2112L10.3161 1.98598L9.89636 1.89385L9.47664 1.98598L9.13882 2.2112ZM22.5391 6.25482L22.8257 6.31624L23.1533 6.43909L23.5116 6.62335L23.8801 6.89975L24.2487 7.25805L24.607 7.73919L24.9345 8.34317L25.2212 9.09048L25.4362 9.99134L25.5795 11.056L25.6307 12.3151L25.5692 13.5743L25.4055 14.6389L25.1598 15.5193L24.8322 16.2462L24.4636 16.8297L24.0542 17.2903L23.6242 17.6282L23.1943 17.8738L22.7848 18.0376L22.4162 18.1298L22.0887 18.181L21.843 18.2014L21.6792 18.1912H13.2643V19.0306H19.2428L19.253 21.856L19.2735 22.2246L19.2223 22.5726L19.1097 22.89L18.9357 23.1869L18.6797 23.4428L18.3624 23.6885L17.9734 23.8932L17.5229 24.0672L17.0009 24.2208L16.4071 24.3539L15.7519 24.446L15.0251 24.5177L14.2369 24.5586L13.3769 24.5689L12.0768 24.5279L10.9815 24.3846L10.0602 24.1799L9.31285 23.9239L8.70887 23.6168L8.2482 23.279L7.90014 22.9309L7.64422 22.5829L7.48042 22.2451L7.37805 21.9379L7.3371 21.682L7.31663 21.4773L7.32687 21.3442V15.8776L7.37805 15.2225L7.51113 14.6697L7.72611 14.1988L7.99227 13.8097L8.29939 13.4822L8.63721 13.2365L8.9955 13.0317L9.3538 12.8884L9.69162 12.786L9.99873 12.7246L10.2649 12.6837L10.4799 12.6632L10.613 12.653H16.5914L17.2977 12.6018L17.9017 12.4585L18.4136 12.2435L18.8333 11.9568L19.1711 11.6293L19.4475 11.271L19.6522 10.9024L19.8058 10.5339L19.9082 10.1756L19.9798 9.84802L20.0208 9.56138L20.0413 9.3464V6.21387H22.1808L22.3241 6.22411L22.5391 6.25482ZM15.9157 20.8426L15.6803 21.1804L15.5984 21.6001L15.6803 22.0198L15.9157 22.3577L16.2536 22.5931L16.6733 22.675L17.093 22.5931L17.4308 22.3577L17.6663 22.0198L17.7482 21.6001L17.6663 21.1804L17.4308 20.8426L17.093 20.6071L16.6733 20.5252L16.2536 20.6071L15.9157 20.8426Z" fill="url(#paint0_linear_92_976)"/>
<defs>
<linearGradient id="paint0_linear_92_976" x1="13.2848" y1="0" x2="13.2848" y2="24.5689" gradientUnits="userSpaceOnUse">
<stop stop-color="#B4481A"/>
<stop offset="1" stop-color="#FF7438"/>
</linearGradient>
</defs>
</svg>
