<svg width="27" height="25" viewBox="0 0 27 25" fill="none" xmlns="http://www.w3.org/2000/svg">
<path d="M15.9773 12.8188C15.9773 13.4767 15.7172 14.1078 15.2542 14.5731C14.7911 15.0385 14.1631 15.3001 13.5082 15.3004C12.853 15.3004 12.2247 15.0389 11.7615 14.5735C11.2982 14.1081 11.038 13.4769 11.038 12.8188C11.038 12.1608 11.2981 11.5298 11.7611 11.0644C12.2241 10.5991 12.8521 10.3375 13.5071 10.3372C14.1622 10.3372 14.7905 10.5986 15.2538 11.064C15.717 11.5294 15.9773 12.1606 15.9773 12.8188ZM18.9026 0.95459C17.4156 0.95459 15.4702 2.02004 13.5027 3.86459C11.5362 2.03002 9.58967 0.976787 8.1038 0.976787C7.65086 0.976787 7.23879 1.08 6.88196 1.28532C5.36294 2.16542 5.02268 4.90784 5.80705 8.34945C2.44422 9.3927 0.256836 11.0608 0.256836 12.8188C0.256836 14.5834 2.45527 16.2559 5.82804 17.2914C5.0503 20.7464 5.39719 23.4932 6.91952 24.3722C7.27304 24.5797 7.68179 24.6774 8.13694 24.6774C9.62282 24.6774 11.5694 23.612 13.5369 21.7652C15.5033 23.6009 17.4499 24.6541 18.9358 24.6541C19.3887 24.6541 19.8008 24.5542 20.1576 24.3489C21.6755 23.4699 22.0169 20.7275 21.2325 17.2848C24.5832 16.2504 26.7706 14.579 26.7706 12.8188C26.7706 11.0541 24.5721 9.3816 21.1994 8.3439C21.9771 4.8923 21.6302 2.14323 20.1079 1.26313C19.7566 1.05891 19.3489 0.9557 18.9026 0.95459ZM18.8971 2.16432V2.17097C19.1457 2.17097 19.3456 2.21981 19.5135 2.31192C20.2493 2.73588 20.5686 4.34848 20.32 6.42277C20.2603 6.9333 20.1631 7.47157 20.0438 8.02094C18.9833 7.75902 17.8277 7.55814 16.6114 7.42828C15.8823 6.42388 15.1255 5.51159 14.3633 4.71251C16.122 3.06994 17.7736 2.16875 18.8982 2.16542L18.8971 2.16432ZM8.1038 2.18651C9.2218 2.18651 10.8811 3.08326 12.6443 4.71695C11.8864 5.51603 11.1308 6.42277 10.4127 7.42717C9.18976 7.55703 8.0331 7.75791 6.97365 8.02427C6.84992 7.48045 6.75823 6.95438 6.69305 6.4483C6.43896 4.37512 6.7527 2.76363 7.48183 2.33412C7.69173 2.23423 7.92373 2.19206 8.1038 2.18651ZM13.4971 5.57152C13.9998 6.09093 14.5024 6.67248 14.9996 7.30731C14.5135 7.28512 14.0164 7.26958 13.5137 7.26958C13.0055 7.26958 12.5029 7.28068 12.0113 7.30731C12.4973 6.67248 13 6.09204 13.4971 5.57152ZM13.5137 8.48596C14.3312 8.48596 15.1454 8.5237 15.9463 8.58918C16.3949 9.2351 16.8323 9.92431 17.2533 10.6535C17.6642 11.3638 18.0376 12.0852 18.3779 12.8132C18.0376 13.5402 17.6642 14.2671 17.2588 14.9774C16.839 15.7099 16.4048 16.4069 15.9552 17.0528C15.1509 17.1227 14.3356 17.1616 13.5137 17.1616C12.6962 17.1616 11.882 17.1227 11.0811 17.0584C10.6325 16.4124 10.1951 15.7221 9.77416 14.9941C9.3632 14.2838 8.9898 13.5624 8.64954 12.8343C8.98428 12.1051 9.3632 11.3771 9.76864 10.6657C10.1884 9.93319 10.6226 9.23843 11.0722 8.59251C11.8765 8.52148 12.6918 8.48374 13.5137 8.48374V8.48596ZM9.49798 8.76786C9.23284 9.18627 8.96771 9.61467 8.72024 10.0553C8.47168 10.4881 8.23968 10.9232 8.01873 11.3582C7.72598 10.6302 7.47741 9.90434 7.27193 9.19737C7.97896 9.03089 8.72466 8.88217 9.49798 8.76786ZM17.5184 8.76786C18.2862 8.88217 19.0264 9.02312 19.7345 9.19737C19.5356 9.89879 19.2871 10.6202 19.0054 11.3427C18.7844 10.9099 18.5524 10.4737 18.2983 10.0397C18.0498 9.60468 17.7846 9.18072 17.5195 8.76786H17.5184ZM20.9022 9.517C21.4369 9.68348 21.9451 9.86882 22.4212 10.0697C24.3346 10.891 25.5719 11.9653 25.5719 12.8177C25.5664 13.67 24.3291 14.7488 22.4157 15.5645C21.9517 15.7643 21.4435 15.9441 20.9188 16.1117C20.6094 15.0484 20.2051 13.9408 19.7036 12.8043C20.2007 11.6756 20.5984 10.5736 20.9022 9.51478V9.517ZM6.10422 9.52144C6.41134 10.5869 6.81678 11.6934 7.31943 12.8288C6.8223 13.9575 6.42239 15.0595 6.11969 16.1183C5.58499 15.9519 5.07681 15.7654 4.60619 15.5634C2.69279 14.7455 1.45548 13.67 1.45548 12.8177C1.45548 11.9653 2.69279 10.8843 4.60619 10.0697C5.07019 9.86993 5.57837 9.69014 6.10422 9.52144ZM19.0054 14.2716C19.2981 15.0007 19.5467 15.7277 19.7522 16.4335C19.0451 16.6078 18.2983 16.7554 17.525 16.8664C17.7902 16.4502 18.0553 16.0207 18.3039 15.5812C18.5524 15.1483 18.7833 14.7066 19.0054 14.2716ZM8.01873 14.2938C8.23968 14.7288 8.47168 15.1628 8.72577 15.5978C8.97986 16.0307 9.23947 16.4546 9.50461 16.8664C8.73682 16.7532 7.99664 16.6111 7.2885 16.438C7.48735 15.7388 7.73703 15.0151 8.01763 14.2926L8.01873 14.2938ZM20.0538 17.6088C20.1775 18.156 20.2747 18.6832 20.3344 19.1881C20.5885 21.2613 20.2747 22.8728 19.5456 23.3034C19.3832 23.4033 19.1722 23.4455 18.9236 23.4455C17.8056 23.4455 16.1463 22.5499 14.3831 20.9151C15.141 20.116 15.8966 19.2103 16.6147 18.207C17.8377 18.0761 18.9943 17.8752 20.0538 17.6088ZM6.9847 17.6199C8.04525 17.8796 9.2008 18.0805 10.4171 18.2104C11.1463 19.2148 11.903 20.1271 12.6653 20.925C10.9032 22.5709 9.24941 23.4721 8.12479 23.4721C7.88175 23.4666 7.67626 23.4166 7.51387 23.3256C6.77811 22.9039 6.45884 21.2902 6.70741 19.2159C6.76706 18.7054 6.86539 18.1682 6.9847 17.6199ZM12.0223 18.3302C12.5084 18.3524 13.0055 18.368 13.5082 18.368C14.0164 18.368 14.519 18.3569 15.0106 18.3302C14.5245 18.9651 14.0219 19.5455 13.5248 20.0671C13.0221 19.5455 12.5194 18.9651 12.0223 18.3302Z" fill="url(#paint0_linear_53_772)"/>
<defs>
<linearGradient id="paint0_linear_53_772" x1="13.5137" y1="0.95459" x2="13.5137" y2="24.6774" gradientUnits="userSpaceOnUse">
<stop stop-color="#B4481A"/>
<stop offset="1" stop-color="#FF7438"/>
</linearGradient>
</defs>
</svg>
