<svg width="24" height="24" viewBox="0 0 24 24" fill="none" xmlns="http://www.w3.org/2000/svg">
<path d="M22.71 13.1448C21.05 15.2368 19.258 17.6278 15.672 17.6278C12.469 17.6278 11.275 14.8028 11.192 12.5078C11.893 13.9918 13.265 15.1928 15.406 15.1378C19.523 15.0048 22.346 11.2858 22.346 7.89876C22.346 3.84876 19.324 0.926758 14.078 0.926758C10.326 0.926758 5.678 2.35476 2.623 4.61176C2.59 6.93676 3.885 9.95776 4.35 9.62576C6.998 7.72176 9.098 6.49576 11.134 5.88176C8.12 9.24376 0.886 17.0498 0 18.4248C0.1 19.6858 1.66 23.0728 2.424 23.0728C2.656 23.0728 2.855 22.9398 3.088 22.7078C5.03195 20.5342 6.88036 18.2771 8.628 15.9428C8.85 19.0468 10.376 22.8408 14.642 22.8408C18.461 22.8408 22.246 20.0848 23.972 13.8758C24.172 13.1118 23.242 12.5148 22.711 13.1458L22.71 13.1448ZM18.361 8.13176C18.361 10.0908 16.435 11.0538 14.676 11.0538C13.735 11.0538 13.012 10.8068 12.441 10.4858C13.492 8.89376 14.533 7.26076 15.651 5.51276C17.623 5.84676 18.361 6.94276 18.361 8.13176Z" fill="#1C1C1C"/>
</svg>
