<svg width="27" height="24" viewBox="0 0 27 24" fill="none" xmlns="http://www.w3.org/2000/svg">
<path d="M18.9173 16.7494C19.8598 16.6703 20.5889 15.8636 20.5423 14.8998C20.4914 13.936 19.68 13.162 18.6909 13.162H18.6248C18.134 13.1791 17.6702 13.3852 17.3354 13.7349C17.0006 14.0847 16.8223 14.5496 16.8395 15.0274C16.872 15.5325 17.0844 15.9438 17.3747 16.2432C16.2394 18.3923 14.5353 19.9719 11.9527 21.2995C10.2161 22.1831 8.38208 22.5163 6.59677 22.2801C5.10396 22.0745 3.93615 21.426 3.22116 20.3831C2.15084 18.8025 2.05334 17.0974 2.94491 15.3912C3.5949 14.1575 4.5688 13.258 5.21879 12.8151C5.02257 12.2855 4.87042 11.7414 4.7638 11.188C-0.0428727 14.5392 0.446786 19.1199 1.9071 21.2847C2.99475 22.8643 5.21879 23.8745 7.653 23.8745C8.30299 23.8745 8.98548 23.8281 9.64956 23.6699C13.8712 22.8801 17.0681 20.4158 18.9022 16.7821L18.9173 16.7494ZM24.7109 12.7993C22.1976 9.92267 18.4948 8.34306 14.2742 8.34306H13.7217C13.4477 7.75888 12.815 7.39508 12.0989 7.39508H12.0502C11.0286 7.39508 10.2324 8.24921 10.266 9.24359C10.2985 10.1905 11.1261 10.9814 12.1163 10.9814H12.1964C12.5476 10.9682 12.8875 10.8568 13.1755 10.6607C13.4634 10.4645 13.6873 10.1919 13.8203 9.87522H14.4216C16.9229 9.87522 19.2911 10.5859 21.4501 11.9757C23.1043 13.0355 24.2906 14.4253 24.9568 16.0851C25.5396 17.4432 25.5082 18.7708 24.9081 19.878C23.9818 21.6148 22.4229 22.5322 20.3625 22.5322C19.0636 22.5322 17.7983 22.1367 17.1483 21.8531C16.7583 22.1673 16.1083 22.6893 15.6381 23.0056C17.0659 23.6362 18.5111 24 19.9064 24C23.0718 24 25.4248 22.2633 26.3185 20.5877C27.2914 18.6917 27.2112 15.5009 24.7261 12.7677L24.7109 12.7993ZM7.92817 17.3167C7.96067 18.2647 8.78724 19.0545 9.77847 19.0545H9.84347C10.0874 19.0491 10.3278 18.9963 10.5504 18.8991C10.7731 18.8019 10.9735 18.6624 11.1399 18.4886C11.3062 18.3149 11.4352 18.1105 11.5192 17.8875C11.6031 17.6645 11.6404 17.4274 11.6288 17.1902C11.6288 16.2411 10.7849 15.4534 9.79472 15.4534H9.72972C9.66472 15.4534 9.56722 15.4534 9.48489 15.484C8.13833 13.2717 7.56959 10.9002 7.78192 8.34306C7.91192 6.41547 8.56191 4.73989 9.72864 3.35009C10.7036 2.16485 12.5377 1.57856 13.7878 1.54903C17.2934 1.48471 18.7548 5.73638 18.8675 7.42671L20.4903 7.90123C20.1166 2.7174 16.807 0 13.6416 0C10.669 0 7.92817 2.10158 6.82318 5.18278C5.31412 9.28998 6.30428 13.2411 8.15566 16.4014C7.99317 16.607 7.89567 16.9698 7.92817 17.3167Z" fill="url(#paint0_linear_53_769)"/>
<defs>
<linearGradient id="paint0_linear_53_769" x1="13.8975" y1="0" x2="13.8975" y2="24" gradientUnits="userSpaceOnUse">
<stop stop-color="#B4481A"/>
<stop offset="1" stop-color="#FF7438"/>
</linearGradient>
</defs>
</svg>
