<svg width="25" height="25" viewBox="0 0 25 25" fill="none" xmlns="http://www.w3.org/2000/svg">
<path d="M24.8279 12.1909L23.7786 11.5411C23.7699 11.439 23.7601 11.337 23.7491 11.2352L24.6508 10.3944C24.6953 10.3521 24.7284 10.2993 24.7469 10.2409C24.7655 10.1824 24.7689 10.1202 24.7569 10.06C24.7449 9.99987 24.7178 9.94375 24.6783 9.89689C24.6387 9.85003 24.5879 9.81397 24.5306 9.79207L23.3779 9.36067C23.3494 9.26095 23.3192 9.16174 23.2873 9.06308L24.0064 8.0641C24.0425 8.01419 24.0652 7.95587 24.0723 7.89471C24.0795 7.83355 24.0709 7.77157 24.0473 7.71468C24.0237 7.6578 23.986 7.60789 23.9377 7.56972C23.8894 7.53155 23.8321 7.50638 23.7713 7.49662L22.5564 7.29926C22.509 7.20742 22.4602 7.11633 22.4099 7.02604L22.9203 5.90473C22.946 5.84882 22.9569 5.78723 22.9519 5.72588C22.9469 5.66454 22.9262 5.60552 22.8917 5.55451C22.8574 5.50341 22.8107 5.46188 22.7559 5.43381C22.7011 5.40574 22.6401 5.39206 22.5786 5.39404L21.3447 5.43739C21.2814 5.35721 21.2164 5.27841 21.1496 5.20106L21.4333 3.99962C21.4473 3.93971 21.4458 3.87721 21.4289 3.81804C21.4121 3.75886 21.3804 3.70497 21.3369 3.66145C21.2934 3.61793 21.2396 3.58622 21.1804 3.56933C21.1213 3.55243 21.0588 3.55091 20.9989 3.56489L19.7976 3.84874C19.7192 3.78285 19.6401 3.71779 19.5603 3.65357L19.6036 2.41931C19.6065 2.35755 19.5934 2.29609 19.5656 2.24087C19.5378 2.18566 19.4962 2.13857 19.4449 2.10418C19.3935 2.06979 19.3341 2.04926 19.2725 2.04459C19.2109 2.03992 19.1491 2.05127 19.0931 2.07753L17.9723 2.58915C17.8814 2.53955 17.7908 2.48995 17.699 2.44254L17.5008 1.2262C17.4905 1.1657 17.465 1.1088 17.4268 1.06083C17.3885 1.01285 17.3387 0.975365 17.282 0.951872C17.2254 0.92838 17.1636 0.919648 17.1027 0.926494C17.0417 0.93334 16.9835 0.95554 16.9334 0.991018L15.9337 1.71053C15.8351 1.67892 15.736 1.64904 15.6363 1.62092L15.205 0.467824C15.1832 0.410507 15.1471 0.359676 15.1003 0.320081C15.0534 0.280485 14.9973 0.253417 14.9371 0.241406C14.877 0.229396 14.8148 0.232835 14.7563 0.251401C14.6979 0.269968 14.6451 0.303057 14.6028 0.347575L13.7623 1.25058C13.6605 1.2391 13.5586 1.22924 13.4565 1.22099L12.8069 0.171267C12.7746 0.118911 12.7294 0.0756897 12.6757 0.045713C12.622 0.0157363 12.5615 0 12.5 0C12.4385 0 12.378 0.0157363 12.3243 0.045713C12.2706 0.0756897 12.2254 0.118911 12.1931 0.171267L11.5435 1.22089C11.4415 1.22966 11.3395 1.23952 11.2377 1.25048L10.3961 0.347471C10.3542 0.302406 10.3014 0.268823 10.2429 0.249919C10.1843 0.231015 10.1219 0.227418 10.0615 0.239471C10.0012 0.251525 9.9449 0.278826 9.89807 0.318779C9.85125 0.358731 9.81543 0.410004 9.79402 0.467719L9.36266 1.62071C9.26245 1.64926 9.16442 1.67979 9.06526 1.71032L8.06659 0.991018C8.01652 0.955539 7.95828 0.933341 7.8973 0.926501C7.83633 0.919661 7.77461 0.928401 7.71793 0.951906C7.66125 0.97541 7.61145 1.01291 7.5732 1.0609C7.53494 1.10889 7.50948 1.1658 7.49919 1.2263L7.30096 2.44254C7.20914 2.48996 7.11809 2.53884 7.02783 2.58915L5.90677 2.07753C5.85077 2.05189 5.78914 2.04103 5.72776 2.04598C5.66637 2.05092 5.60728 2.07151 5.5561 2.10578C5.50493 2.14004 5.46338 2.18685 5.43541 2.24173C5.40744 2.29662 5.39399 2.35775 5.39634 2.41931L5.43967 3.65357C5.35938 3.71716 5.28027 3.78223 5.20238 3.84874L4.00121 3.56479C3.94131 3.55079 3.87884 3.5523 3.81968 3.56918C3.76053 3.58606 3.70666 3.61775 3.66317 3.66126C3.61967 3.70477 3.58799 3.75866 3.57111 3.81783C3.55424 3.877 3.55273 3.9395 3.56673 3.99941L3.84933 5.20096C3.78392 5.27911 3.7186 5.3582 3.65527 5.43729L2.42139 5.39404C2.35986 5.3917 2.29874 5.40515 2.24388 5.43313C2.18901 5.4611 2.14222 5.50267 2.10796 5.55386C2.07371 5.60505 2.05313 5.66416 2.04818 5.72556C2.04324 5.78697 2.0541 5.84861 2.07972 5.90463L2.59119 7.02594C2.54086 7.11621 2.492 7.2073 2.44462 7.29916L1.22981 7.49651C1.16934 7.50682 1.11246 7.53229 1.06451 7.57055C1.01655 7.60881 0.979068 7.65861 0.955573 7.71529C0.932079 7.77197 0.923335 7.83369 0.93016 7.89467C0.936985 7.95565 0.959155 8.01391 0.994599 8.06399L1.71378 9.06297C1.68246 9.16179 1.65225 9.26097 1.62315 9.36047L0.470527 9.79186C0.413221 9.81374 0.362396 9.8498 0.322802 9.89666C0.283208 9.94352 0.256137 9.99966 0.244119 10.0598C0.232102 10.12 0.23553 10.1822 0.254084 10.2407C0.272637 10.2992 0.305711 10.352 0.350213 10.3942L1.25189 11.2352C1.24045 11.3369 1.23062 11.4389 1.22242 11.541L0.173127 12.1908C0.120294 12.2227 0.076597 12.2677 0.0462667 12.3215C0.0159365 12.3753 0 12.436 0 12.4978C0 12.5595 0.0159365 12.6202 0.0462667 12.674C0.076597 12.7278 0.120294 12.7728 0.173127 12.8047L1.22242 13.4545C1.23075 13.5569 1.24137 13.6592 1.25189 13.7605L0.350213 14.6023C0.305164 14.6443 0.271597 14.697 0.252706 14.7556C0.233815 14.8142 0.230229 14.8767 0.242289 14.9371C0.254349 14.9974 0.281653 15.0537 0.321604 15.1005C0.361555 15.1474 0.412823 15.1832 0.470527 15.2046L1.62315 15.6361C1.65159 15.7363 1.68221 15.8355 1.71378 15.9336L0.994599 16.9326C0.958201 16.9825 0.935266 17.0409 0.928003 17.1023C0.920741 17.1636 0.929396 17.2258 0.953135 17.2828C0.976874 17.3399 1.0149 17.3898 1.06354 17.4279C1.11218 17.4659 1.1698 17.4908 1.23085 17.5002L2.44566 17.6974C2.49317 17.7891 2.54171 17.8799 2.59233 17.9706L2.08087 19.092C2.05524 19.148 2.04439 19.2097 2.04933 19.2711C2.05427 19.3325 2.07485 19.3916 2.10911 19.4428C2.14337 19.494 2.19016 19.5356 2.24502 19.5635C2.29989 19.5915 2.361 19.605 2.42254 19.6026L3.65527 19.5594C3.71964 19.6395 3.78392 19.7186 3.85038 19.7966L3.56777 20.9992C3.55368 21.0591 3.55514 21.1216 3.572 21.1808C3.58886 21.2399 3.62057 21.2938 3.66411 21.3372C3.70765 21.3807 3.76158 21.4123 3.82076 21.429C3.87994 21.4457 3.94242 21.447 4.00225 21.4328L5.20332 21.1501C5.28144 21.2166 5.36061 21.2809 5.44072 21.3442L5.39749 22.5785C5.39473 22.6402 5.40793 22.7015 5.43582 22.7566C5.4637 22.8116 5.50532 22.8586 5.55665 22.8928C5.60798 22.9271 5.66728 22.9475 5.72882 22.9522C5.79035 22.9568 5.85204 22.9455 5.90791 22.9192L7.02887 22.4087C7.11949 22.4593 7.21022 22.5078 7.302 22.5553L7.50023 23.7705C7.51037 23.8311 7.53573 23.8881 7.57392 23.9362C7.61212 23.9843 7.6619 24.022 7.7186 24.0456C7.77531 24.0692 7.83708 24.078 7.89812 24.0712C7.95917 24.0645 8.0175 24.0423 8.06763 24.0068L9.0663 23.2874C9.16494 23.3192 9.26409 23.3494 9.3637 23.378L9.79496 24.5311C9.81613 24.5891 9.85184 24.6406 9.89865 24.6807C9.94547 24.7209 10.0018 24.7483 10.0623 24.7604C10.1228 24.7725 10.1853 24.7688 10.244 24.7497C10.3026 24.7306 10.3554 24.6967 10.3972 24.6514L11.2387 23.7494C11.34 23.761 11.4423 23.7706 11.5446 23.78L12.1942 24.8297C12.2267 24.8818 12.2719 24.9248 12.3256 24.9546C12.3793 24.9844 12.4396 25 12.501 25C12.5624 25 12.6228 24.9844 12.6765 24.9546C12.7302 24.9248 12.7754 24.8818 12.8079 24.8297L13.4575 23.78C13.5598 23.7706 13.6621 23.761 13.7634 23.7494L14.6039 24.6514C14.6461 24.6959 14.6989 24.7289 14.7573 24.7475C14.8158 24.766 14.878 24.7695 14.9381 24.7575C14.9982 24.7455 15.0544 24.7184 15.1012 24.6788C15.148 24.6392 15.1841 24.5884 15.206 24.5311L15.6373 23.378C15.737 23.3496 15.8362 23.3194 15.9347 23.2874L16.9334 24.0068C16.9833 24.0432 17.0417 24.0661 17.1031 24.0734C17.1644 24.0807 17.2265 24.072 17.2836 24.0483C17.3406 24.0245 17.3905 23.9865 17.4286 23.9378C17.4666 23.8892 17.4915 23.8315 17.5008 23.7705L17.699 22.5553C17.7907 22.5078 17.8814 22.4583 17.9722 22.4087L19.0932 22.9192C19.1492 22.9445 19.2106 22.9551 19.2718 22.9501C19.333 22.9451 19.3919 22.9246 19.4429 22.8905C19.494 22.8564 19.5355 22.8099 19.5636 22.7553C19.5918 22.7007 19.6055 22.6399 19.6037 22.5785L19.5604 21.3442C19.6406 21.2813 19.7193 21.2165 19.7966 21.1501L20.9977 21.4328C21.0575 21.4467 21.1199 21.4452 21.1789 21.4284C21.2379 21.4116 21.2917 21.38 21.3352 21.3366C21.3786 21.2933 21.4103 21.2395 21.4273 21.1805C21.4443 21.1215 21.446 21.0592 21.4322 20.9993L21.1496 19.7966C21.215 19.7186 21.2804 19.6395 21.3437 19.5593L22.5776 19.6025C22.6393 19.6055 22.7007 19.5924 22.7559 19.5646C22.8111 19.5368 22.8582 19.4951 22.8926 19.4438C22.927 19.3924 22.9475 19.333 22.9522 19.2714C22.9568 19.2097 22.9455 19.1479 22.9192 19.0919L22.4088 17.9707C22.4583 17.8799 22.5079 17.7892 22.5554 17.6974L23.7702 17.5002C23.8307 17.4899 23.8876 17.4644 23.9355 17.4261C23.9835 17.3879 24.021 17.338 24.0445 17.2813C24.068 17.2246 24.0767 17.1629 24.0699 17.1019C24.0631 17.0409 24.0409 16.9826 24.0054 16.9326L23.2862 15.9336L23.3769 15.6361L24.5296 15.2047C24.5873 15.1833 24.6386 15.1475 24.6785 15.1006C24.7185 15.0538 24.7458 14.9975 24.7578 14.9371C24.7699 14.8767 24.7663 14.8142 24.7474 14.7556C24.7285 14.697 24.6949 14.6442 24.6498 14.6023L23.7481 13.7605C23.7586 13.6592 23.7691 13.5569 23.7776 13.4545L24.8269 12.8047C24.8797 12.7728 24.9234 12.7278 24.9537 12.674C24.9841 12.6202 25 12.5595 25 12.4978C25 12.436 24.9841 12.3753 24.9537 12.3215C24.9234 12.2677 24.8797 12.2227 24.8269 12.1908L24.8279 12.1909ZM17.8056 20.897C17.6137 20.8548 17.4463 20.7384 17.34 20.5731C17.2336 20.4078 17.197 20.2072 17.2381 20.015C17.2792 19.8228 17.3947 19.6547 17.5593 19.5474C17.7239 19.4401 17.9243 19.4023 18.1167 19.4424C18.2135 19.4615 18.3055 19.4997 18.3874 19.5548C18.4694 19.6099 18.5395 19.6807 18.5937 19.7632C18.648 19.8457 18.6853 19.9381 18.7035 20.0352C18.7217 20.1322 18.7204 20.2319 18.6997 20.3284C18.679 20.4249 18.6392 20.5164 18.5828 20.5974C18.5264 20.6784 18.4545 20.7474 18.3712 20.8003C18.2878 20.8532 18.1948 20.889 18.0975 20.9056C18.0002 20.9222 17.9006 20.9193 17.8045 20.897H17.8056ZM17.4491 18.4856C17.3622 18.4669 17.2724 18.4655 17.1848 18.4815C17.0973 18.4976 17.0139 18.5308 16.9392 18.5792C16.8645 18.6276 16.8002 18.6903 16.7498 18.7636C16.6994 18.8369 16.6639 18.9195 16.6455 19.0066L16.2733 20.7452C15.1238 21.2672 13.8477 21.5574 12.5031 21.5574C11.1735 21.5593 9.8597 21.2698 8.654 20.7092L8.2817 18.9707C8.26328 18.8837 8.22784 18.8012 8.17743 18.7279C8.12702 18.6546 8.06263 18.592 7.98796 18.5437C7.91329 18.4954 7.82981 18.4623 7.74232 18.4463C7.65483 18.4304 7.56505 18.4319 7.47815 18.4508L5.94374 18.7798C5.65863 18.4862 5.39368 18.1735 5.15071 17.8441H12.6171C12.7015 17.8441 12.7583 17.8294 12.7583 17.7524V15.1099C12.7583 15.0328 12.7025 15.0181 12.6171 15.0181H10.4331V13.3428H12.7953C13.0104 13.3428 13.9479 13.404 14.2474 14.6024C14.3413 14.9706 14.5469 16.17 14.6883 16.554C14.8285 16.9844 15.4001 17.8441 16.0096 17.8441H19.7301C19.7754 17.8435 19.8206 17.8389 19.8651 17.8305C19.6072 18.181 19.3245 18.5127 19.0194 18.8231L17.4491 18.4856ZM7.12168 20.8612C7.02553 20.8835 6.92591 20.8864 6.82862 20.8698C6.73132 20.8532 6.63831 20.8174 6.55499 20.7645C6.47167 20.7116 6.39971 20.6426 6.34331 20.5616C6.28691 20.4805 6.24719 20.3891 6.22647 20.2926C6.20575 20.196 6.20445 20.0963 6.22264 19.9993C6.24082 19.9023 6.27814 19.8098 6.3324 19.7274C6.38666 19.6449 6.45679 19.574 6.5387 19.519C6.62061 19.4639 6.71266 19.4257 6.80949 19.4065C7.00093 19.3687 7.19958 19.4076 7.36258 19.5149C7.52559 19.6223 7.6399 19.7894 7.68086 19.9802C7.72182 20.1711 7.68615 20.3704 7.58155 20.5352C7.47694 20.7 7.31178 20.8171 7.12168 20.8612ZM4.28913 9.37109C4.3321 9.4608 4.35664 9.55821 4.3613 9.65757C4.36596 9.75693 4.35065 9.85622 4.31627 9.94955C4.28189 10.0429 4.22914 10.1284 4.16114 10.201C4.09315 10.2735 4.01129 10.3317 3.92041 10.3721C3.82953 10.4125 3.73148 10.4342 3.63206 10.436C3.53264 10.4378 3.43387 10.4196 3.34159 10.3825C3.24932 10.3455 3.16542 10.2903 3.09485 10.2202C3.02429 10.1501 2.9685 10.0666 2.93078 9.97452C2.85763 9.79551 2.85707 9.59503 2.92922 9.4156C3.00137 9.23618 3.14056 9.09193 3.31725 9.01345C3.49395 8.93496 3.69427 8.92842 3.87571 8.99521C4.05715 9.062 4.20544 9.19676 4.28913 9.37109ZM3.41912 11.4356L5.01779 10.7246C5.09912 10.6884 5.17252 10.6366 5.23382 10.5721C5.29512 10.5076 5.3431 10.4316 5.37503 10.3486C5.40695 10.2655 5.42219 10.1769 5.41988 10.0879C5.41757 9.99896 5.39775 9.91131 5.36155 9.83L5.03258 9.08527H6.32761V14.9231H3.71537C3.39325 13.7901 3.29301 12.6055 3.42016 11.4345L3.41912 11.4356ZM10.4341 10.8691V9.14852H13.5176C13.677 9.14852 14.6418 9.33317 14.6418 10.0548C14.6418 10.6539 13.9015 10.8691 13.293 10.8691H10.4341ZM21.6399 12.4177C21.6399 12.6456 21.6316 12.8724 21.6146 13.0961H20.6771C20.5834 13.0961 20.5453 13.1571 20.5453 13.25V13.6803C20.5453 14.6942 19.9738 14.9147 19.4728 14.9706C18.9962 15.0244 18.4678 14.7712 18.4025 14.479C18.1208 12.8966 17.6527 12.558 16.9124 11.9747C17.8308 11.3912 18.7864 10.5304 18.7864 9.37849C18.7864 8.13475 17.9332 7.35094 17.3521 6.96592C16.5369 6.42793 15.6342 6.32039 15.3906 6.32039H5.69593C7.03576 4.82175 8.83249 3.80721 10.8075 3.43412L11.9506 4.63348C12.0119 4.69794 12.0852 4.74966 12.1665 4.78567C12.2478 4.82169 12.3354 4.84129 12.4242 4.84335C12.5131 4.84542 12.6015 4.8299 12.6844 4.79769C12.7672 4.76548 12.8429 4.71722 12.9071 4.65567L14.1852 3.43204C15.4885 3.67653 16.7229 4.20171 17.803 4.97114C18.883 5.74058 19.7828 6.73584 20.4399 7.88789L19.5646 9.86584C19.4921 10.0301 19.4875 10.2165 19.5519 10.3841C19.6163 10.5517 19.7445 10.687 19.9084 10.7604L21.5936 11.5094C21.6231 11.809 21.6379 12.1107 21.6379 12.4177H21.6399ZM11.9517 2.41514C12.0942 2.27917 12.2848 2.20539 12.4817 2.21005C12.5792 2.21235 12.6753 2.23384 12.7644 2.27328C12.8536 2.31273 12.9342 2.36936 13.0015 2.43994C13.0688 2.51052 13.1215 2.59367 13.1567 2.68464C13.1919 2.77562 13.2088 2.87263 13.2065 2.97014C13.2042 3.06766 13.1827 3.16376 13.1433 3.25297C13.1038 3.34219 13.0472 3.42275 12.9767 3.49008C12.8323 3.61479 12.6454 3.67919 12.4549 3.66995C12.2643 3.66071 12.0846 3.57854 11.9529 3.44044C11.8212 3.30234 11.7476 3.11889 11.7474 2.92804C11.7472 2.73719 11.8203 2.55355 11.9517 2.41514ZM20.6382 9.40704C20.6775 9.31784 20.734 9.23728 20.8045 9.16998C20.875 9.10268 20.9581 9.04997 21.0491 9.01488C21.14 8.97978 21.237 8.96299 21.3344 8.96547C21.4318 8.96795 21.5278 8.98964 21.6168 9.02931C21.7514 9.08872 21.8653 9.18673 21.9442 9.31094C22.0231 9.43515 22.0634 9.57998 22.0599 9.72709C22.0565 9.8742 22.0095 10.017 21.9249 10.1374C21.8403 10.2578 21.7219 10.3503 21.5847 10.4034C21.4475 10.4564 21.2976 10.4676 21.1541 10.4354C21.0105 10.4032 20.8798 10.3291 20.7783 10.2226C20.6769 10.116 20.6093 9.98175 20.5842 9.83677C20.559 9.69178 20.5775 9.54259 20.6371 9.40809L20.6382 9.40704Z" fill="#1C1C1C"/>
</svg>
