<svg width="78" height="117" viewBox="0 0 78 117" fill="none" xmlns="http://www.w3.org/2000/svg">
<path d="M26.9246 123.567C27.6071 123.167 28.353 122.777 29.1622 122.407C28.4786 123.426 27.7465 124.412 26.9685 125.361C25.6035 127.004 24.5407 127.876 23.8728 128.149C23.8174 128.173 23.7604 128.192 23.7022 128.208C23.6536 128.14 23.6111 128.069 23.5755 127.993C23.3025 127.457 23.3122 126.94 23.7705 126.238C24.2872 125.434 25.3256 124.513 26.9246 123.567ZM38.8927 115.538C38.3126 115.66 37.7373 115.782 37.1572 115.918C38.0165 114.235 38.8293 112.528 39.5947 110.799C40.3653 112.227 41.1948 113.623 42.081 114.982C41.0231 115.138 39.9555 115.323 38.8927 115.538ZM51.2021 120.115C50.4449 119.505 49.7359 118.836 49.0815 118.117C50.193 118.141 51.1972 118.224 52.065 118.38C53.6103 118.658 54.3367 119.097 54.5902 119.399C54.6701 119.483 54.7154 119.595 54.717 119.711C54.6999 120.055 54.5995 120.389 54.4245 120.686C54.3262 120.923 54.1683 121.132 53.9662 121.29C53.8656 121.352 53.747 121.378 53.6298 121.363C53.1911 121.349 52.3721 121.042 51.2021 120.115ZM40.3552 96.9787C40.1602 98.1682 39.8287 99.5332 39.3802 101.02C39.215 100.463 39.0702 99.9007 38.9463 99.3333C38.5758 97.6125 38.5222 96.2621 38.7221 95.3261C38.9073 94.4632 39.2583 94.1171 39.6776 93.9465C39.9024 93.8474 40.1406 93.7817 40.3845 93.7515C40.4478 93.8977 40.521 94.2 40.5405 94.7167C40.5648 95.3115 40.5063 96.0671 40.3552 96.9836V96.9787Z" fill="url(#paint0_linear_106_991)"/>
<path fill-rule="evenodd" clip-rule="evenodd" d="M19.5 63H45.3034C46.5962 63.0003 47.836 63.5141 48.75 64.4284L66.8216 82.5C67.7359 83.414 68.2497 84.6538 68.25 85.9466V131.25C68.25 133.836 67.2228 136.316 65.3943 138.144C63.5658 139.973 61.0859 141 58.5 141H19.5C16.9141 141 14.4342 139.973 12.6057 138.144C10.7772 136.316 9.75 133.836 9.75 131.25V72.75C9.75 70.1641 10.7772 67.6842 12.6057 65.8557C14.4342 64.0272 16.9141 63 19.5 63ZM46.3125 70.3125V80.0625C46.3125 81.3554 46.8261 82.5954 47.7404 83.5096C48.6546 84.4239 49.8946 84.9375 51.1875 84.9375H60.9375L46.3125 70.3125ZM20.3044 129.632C20.7431 130.509 21.4256 131.304 22.4396 131.674C23.4488 132.04 24.4481 131.869 25.2671 131.528C26.8174 130.894 28.3628 129.402 29.7814 127.696C31.4048 125.741 33.111 123.177 34.7588 120.335C37.9398 119.392 41.1974 118.73 44.4941 118.356C45.9566 120.223 47.4679 121.832 48.9304 122.987C50.2954 124.059 51.87 124.952 53.4836 125.02C54.3626 125.063 55.2328 124.828 55.9699 124.347C56.7255 123.855 57.2861 123.143 57.6956 122.319C58.1344 121.437 58.4025 120.515 58.3684 119.574C58.3375 118.647 57.9939 117.757 57.3934 117.049C56.2916 115.733 54.4879 115.099 52.7134 114.782C50.5608 114.449 48.3767 114.367 46.2052 114.538C44.3716 111.946 42.7727 109.196 41.4278 106.319C42.6465 103.102 43.5581 100.06 43.9627 97.5735C44.1382 96.5108 44.2309 95.4968 44.1967 94.5803C44.1907 93.6705 43.979 92.7739 43.5776 91.9575C43.3464 91.5069 43.0177 91.1135 42.6155 90.8057C42.2133 90.498 41.7476 90.2836 41.2522 90.1781C40.2675 89.9685 39.2535 90.1781 38.3224 90.5535C36.4845 91.2847 35.5144 92.8447 35.1488 94.5656C34.7929 96.2231 34.9538 98.1536 35.373 100.104C35.802 102.083 36.5332 104.238 37.4692 106.417C35.9721 110.14 34.2429 113.766 32.292 117.273C29.7796 118.064 27.3579 119.118 25.0673 120.418C23.2635 121.49 21.6596 122.758 20.6944 124.254C19.6706 125.844 19.3537 127.735 20.3044 129.632Z" fill="url(#paint1_linear_106_991)"/>
<path d="M45.3034 -24H19.5C16.9141 -24 14.4342 -22.9728 12.6057 -21.1443C10.7772 -19.3158 9.75 -16.8359 9.75 -14.25V44.25C9.75 46.8359 10.7772 49.3158 12.6057 51.1443C14.4342 52.9728 16.9141 54 19.5 54H58.5C61.0859 54 63.5658 52.9728 65.3943 51.1443C67.2228 49.3158 68.25 46.8359 68.25 44.25V-1.05338C68.2497 -2.3462 67.7359 -3.58597 66.8216 -4.5L48.75 -22.5716C47.836 -23.4859 46.5962 -23.9997 45.3034 -24ZM46.3125 -6.9375V-16.6875L60.9375 -2.0625H51.1875C49.8946 -2.0625 48.6546 -2.57612 47.7404 -3.49036C46.8261 -4.4046 46.3125 -5.64457 46.3125 -6.9375ZM26.7394 9.53513L31.7899 29.7371L36.6503 11.919C36.7921 11.4047 37.0988 10.9511 37.5233 10.6279C37.9477 10.3047 38.4665 10.1296 39 10.1296C39.5335 10.1296 40.0523 10.3047 40.4768 10.6279C40.9012 10.9511 41.2079 11.4047 41.3498 11.919L46.2101 29.7371L51.2606 9.53513C51.429 8.9211 51.831 8.39733 52.3805 8.07583C52.9301 7.75433 53.5836 7.66062 54.2014 7.81475C54.8191 7.96887 55.3521 8.35858 55.6862 8.90055C56.0203 9.44252 56.1292 10.0937 55.9894 10.7149L48.6769 39.9649C48.5452 40.4869 48.2444 40.9507 47.8214 41.2838C47.3984 41.6169 46.877 41.8005 46.3386 41.8061C45.8002 41.8117 45.2751 41.6388 44.8453 41.3146C44.4155 40.9903 44.1052 40.5328 43.9627 40.0136L39 21.8348L34.0372 40.0185C33.8948 40.5377 33.5845 40.9952 33.1547 41.3194C32.7249 41.6437 32.1998 41.8166 31.6614 41.811C31.123 41.8054 30.6016 41.6218 30.1786 41.2887C29.7556 40.9556 29.4548 40.4918 29.3231 39.9697L22.0106 10.7198C21.9247 10.4065 21.9023 10.0792 21.9447 9.75711C21.9871 9.43504 22.0934 9.12469 22.2574 8.8443C22.4215 8.56391 22.6399 8.31913 22.8999 8.12436C23.1598 7.92959 23.4561 7.78875 23.7713 7.71011C24.0865 7.63148 24.4142 7.61664 24.7352 7.66646C25.0562 7.71629 25.364 7.82978 25.6405 8.00026C25.9171 8.17074 26.1567 8.39477 26.3454 8.65919C26.5341 8.92361 26.6681 9.2182 26.7394 9.53513Z" fill="black"/>
<defs>
<linearGradient id="paint0_linear_106_991" x1="39.0551" y1="93.7515" x2="39.0551" y2="128.208" gradientUnits="userSpaceOnUse">
<stop stop-color="#B4481A"/>
<stop offset="1" stop-color="#FF7438"/>
</linearGradient>
<linearGradient id="paint1_linear_106_991" x1="39" y1="63" x2="39" y2="141" gradientUnits="userSpaceOnUse">
<stop stop-color="#B4481A"/>
<stop offset="1" stop-color="#FF7438"/>
</linearGradient>
</defs>
</svg>
