<svg width="28" height="15" viewBox="0 0 28 15" fill="none" xmlns="http://www.w3.org/2000/svg">
<path d="M14.3975 0C10.7975 0 8.54746 1.66667 7.64746 5C8.99746 3.33333 10.5725 2.70833 12.3725 3.125C13.3996 3.3625 14.1331 4.05208 14.9465 4.81667C16.2706 6.06042 17.8017 7.5 21.1475 7.5C24.7475 7.5 26.9975 5.83333 27.8975 2.5C26.5475 4.16667 24.9725 4.79167 23.1725 4.375C22.1453 4.1375 21.4118 3.44792 20.5985 2.68333C19.2755 1.43958 17.7443 0 14.3975 0ZM7.64746 7.5C4.04746 7.5 1.79746 9.16667 0.897461 12.5C2.24746 10.8333 3.82246 10.2083 5.62246 10.625C6.64959 10.8625 7.38309 11.5521 8.19646 12.3167C9.52059 13.5604 11.0517 15 14.3975 15C17.9975 15 20.2475 13.3333 21.1475 10C19.7975 11.6667 18.2225 12.2917 16.4225 11.875C15.3953 11.6375 14.6618 10.9479 13.8485 10.1833C12.5255 8.93958 10.9943 7.5 7.64746 7.5Z" fill="url(#paint0_linear_53_774)"/>
<defs>
<linearGradient id="paint0_linear_53_774" x1="14.3975" y1="0" x2="14.3975" y2="15" gradientUnits="userSpaceOnUse">
<stop stop-color="#B4481A"/>
<stop offset="1" stop-color="#FF7438"/>
</linearGradient>
</defs>
</svg>
