<svg width="24" height="24" viewBox="0 0 24 24" fill="none" xmlns="http://www.w3.org/2000/svg">
<path d="M0.263762 2.15377e-05C0.223482 0.00065856 0.183863 0.0103684 0.147853 0.0284289C0.111842 0.0464894 0.0803667 0.0724358 0.055767 0.104339C0.0311673 0.136241 0.0140764 0.173279 0.00576529 0.212698C-0.00254583 0.252117 -0.00186327 0.292903 0.00776221 0.332022L2.90176 12.048C2.90406 12.0616 2.90741 12.075 2.91176 12.088L5.80176 23.796C5.81306 23.8418 5.83625 23.8838 5.86898 23.9178C5.90171 23.9518 5.94283 23.9765 5.98819 23.9895C6.03354 24.0025 6.08152 24.0033 6.12727 23.9918C6.17303 23.9803 6.21493 23.9569 6.24876 23.924L23.6858 7.15002C23.7195 7.11735 23.7441 7.07639 23.757 7.03124C23.7699 6.98609 23.7708 6.93833 23.7594 6.89275C23.7481 6.84718 23.7249 6.80538 23.6924 6.77156C23.6598 6.73773 23.6189 6.71306 23.5738 6.70002L17.7898 5.03302C17.7522 5.0116 17.71 4.99959 17.6668 4.99802L6.26376 1.71502C6.22053 1.6883 6.17058 1.67443 6.11976 1.67502L0.339762 0.0100215C0.315039 0.00306371 0.289444 -0.000304067 0.263762 2.15377e-05ZM0.637762 0.654022L5.59376 2.08002L1.87376 5.66402L0.637762 0.654022ZM6.49376 2.34002L11.3578 3.74002L7.70776 7.25502L6.49376 2.34002ZM5.97176 2.46002L7.18876 7.38602L2.31176 5.98602L5.97176 2.46002ZM12.2518 3.99802L17.1298 5.40202L13.4678 8.93202L12.2518 3.99802ZM11.7318 4.12802L12.9398 9.02802L8.08676 7.63602L11.7318 4.12802ZM18.0318 5.66202L22.9788 7.08602L19.2638 10.66L18.0318 5.66202ZM17.5078 5.78202L18.7228 10.708L13.8468 9.31002L17.5078 5.78202ZM2.07576 6.47802L7.03976 7.90202L3.31376 11.488L2.07576 6.47802ZM7.93076 8.15002L12.8078 9.55002L9.14776 13.077L7.93076 8.15002ZM7.41276 8.28702L8.64876 13.304L3.68576 11.872L7.41276 8.28702ZM13.6868 9.82202L18.6518 11.247L14.9218 14.833L13.6868 9.82202ZM13.1668 9.94902L14.4018 14.961L9.44376 13.531L13.1668 9.94902ZM3.53676 12.387L8.40976 13.793L4.75376 17.316L3.53676 12.387ZM9.39076 14.074L14.2538 15.477L10.6058 18.987L9.39076 14.074ZM8.85076 14.114L10.0648 19.041L5.18976 17.641L8.85076 14.114ZM4.95476 18.134L9.99176 19.576L6.20976 23.214L4.95476 18.134Z" fill="#1C1C1C"/>
</svg>
