<svg width="25" height="25" viewBox="0 0 25 25" fill="none" xmlns="http://www.w3.org/2000/svg">
<path d="M1.17187 0C0.522917 0 0 0.522917 0 1.17187V23.8281C0 24.4771 0.522917 25 1.17187 25H23.8281C24.4771 25 25 24.4771 25 23.8281V1.17187C25 0.522917 24.4771 0 23.8281 0H1.17187ZM19.2583 10.1562C19.8958 10.1562 20.4604 10.1948 20.9531 10.2719C21.4178 10.3415 21.8739 10.4602 22.3135 10.626V13.1865C22.1025 13.0405 21.8783 12.9146 21.6437 12.8104C21.4019 12.7016 21.1523 12.6111 20.8969 12.5396C20.4131 12.4048 19.9136 12.3347 19.4115 12.3312C19.099 12.3312 18.8146 12.3604 18.5583 12.4208C18.3299 12.4697 18.1109 12.5548 17.9094 12.6729C17.7323 12.7812 17.5969 12.9115 17.5 13.0625C17.4026 13.2147 17.3519 13.3922 17.3542 13.5729C17.3542 13.7771 17.4094 13.9615 17.5167 14.124C17.625 14.2865 17.7792 14.4406 17.9781 14.5865C18.1771 14.7323 18.4187 14.874 18.7031 15.0135C18.9875 15.1542 19.3094 15.299 19.6677 15.4469C20.1573 15.6521 20.5969 15.8708 20.9865 16.101C21.376 16.3323 21.7104 16.5937 21.9896 16.8854C22.2687 17.176 22.4813 17.5083 22.6292 17.8823C22.7771 18.2562 22.8521 18.6906 22.8521 19.1875C22.8521 19.8719 22.7219 20.4479 22.4635 20.9125C22.2111 21.3707 21.8489 21.7591 21.4094 22.0427C20.9356 22.3431 20.4105 22.5536 19.8604 22.6635C19.2708 22.7885 18.649 22.851 17.9958 22.851C17.353 22.8539 16.7113 22.7967 16.0792 22.6802C15.5322 22.5856 15.0018 22.4126 14.5042 22.1667V19.4271C15.4456 20.2283 16.6399 20.671 17.876 20.6771C18.2229 20.6771 18.526 20.6458 18.7844 20.5833C19.0438 20.5208 19.2594 20.4333 19.4333 20.3229C19.6062 20.2104 19.7354 20.0792 19.8219 19.9271C19.9174 19.75 19.9609 19.5495 19.9473 19.3488C19.9336 19.148 19.8634 18.9552 19.7448 18.7927C19.59 18.5879 19.4007 18.4117 19.1854 18.2719C18.9184 18.0949 18.6372 17.9402 18.3448 17.8094C17.9982 17.6511 17.6484 17.4997 17.2958 17.3552C16.3396 16.9562 15.6271 16.4677 15.1573 15.8917C14.6885 15.3156 14.4531 14.6187 14.4531 13.8031C14.4531 13.1635 14.5812 12.6146 14.8375 12.1552C15.0937 11.6958 15.4417 11.3177 15.8833 11.0208C16.3505 10.7127 16.8691 10.4907 17.4146 10.3656C18.0187 10.2232 18.6376 10.1529 19.2583 10.1562ZM3.51562 10.3521H13.4771V12.6083H9.90208V22.6562H7.07187V12.6083H3.51562V10.3521Z" fill="url(#paint0_linear_92_967)"/>
<defs>
<linearGradient id="paint0_linear_92_967" x1="12.5" y1="0" x2="12.5" y2="25" gradientUnits="userSpaceOnUse">
<stop stop-color="#B4481A"/>
<stop offset="1" stop-color="#FF7438"/>
</linearGradient>
</defs>
</svg>
