<svg width="28" height="13" viewBox="0 0 28 13" fill="none" xmlns="http://www.w3.org/2000/svg">
<path d="M22.0827 9.13913C21.833 9.24816 21.5845 9.30267 21.3325 9.30267C20.9335 9.30267 20.5742 9.2312 20.2557 9.08704C19.9488 8.95194 19.6741 8.74895 19.4507 8.49222C19.2325 8.23903 19.0633 7.94343 18.9467 7.60181C18.83 7.26018 18.7728 6.8919 18.7728 6.49818C18.7728 6.09235 18.8312 5.71922 18.9467 5.37154C19.0633 5.02386 19.229 4.72221 19.4472 4.46659C19.6694 4.20539 19.9442 3.99817 20.2522 3.85966C20.5921 3.70778 20.959 3.63223 21.329 3.63796C21.5973 3.63796 21.8552 3.68158 22.1037 3.76395C22.3533 3.84754 22.5797 3.97111 22.7815 4.13223C22.9833 4.29336 23.1502 4.49446 23.2797 4.73311C23.4141 4.98559 23.496 5.2646 23.52 5.55205H22.4292C22.3603 5.2504 22.2297 5.02264 22.036 4.87121C21.831 4.71557 21.5816 4.63581 21.3278 4.64467C21.07 4.64467 20.8518 4.69677 20.6722 4.79974C20.4925 4.90271 20.3455 5.04082 20.2347 5.21648C20.1238 5.39213 20.041 5.5896 19.9908 5.81129C19.9407 6.03299 19.9138 6.26195 19.9138 6.50061C19.9138 6.72715 19.9383 6.94884 19.9908 7.16448C20.041 7.38011 20.1238 7.57273 20.2347 7.74476C20.3455 7.91678 20.4925 8.05489 20.6722 8.15907C20.8518 8.26326 21.0712 8.31414 21.3278 8.31414C21.707 8.31414 22.001 8.21359 22.2075 8.01491C22.4152 7.81623 22.5342 7.52912 22.5703 7.14994H21.4188V6.25711H23.6028V9.18032H22.8748L22.7582 8.56854C22.585 8.81692 22.3521 9.01369 22.0827 9.13913ZM25.4613 3.77365V8.17361H28V9.17668H24.3192V3.77365H25.4613ZM3.24917 6.49818C3.24917 5.63927 3.64933 4.83124 4.35517 4.12133L5.649 9.23483H6.54033L7.7945 4.61318L9.03117 9.23483H9.92483L11.466 3.35206H10.4627L9.45817 7.86469L8.246 3.35085H7.32667L6.1145 7.86348L5.1345 3.46352C6.87167 2.22179 9.64717 1.41618 12.7738 1.41618C15.7045 1.41618 18.3318 2.05703 20.0783 3.16671C18.1743 1.30715 14.7525 0.00242289 10.8442 0C4.8545 0 0 2.90868 0 6.49818C0 10.0877 4.8545 13 10.8418 13C14.7362 13 18.1463 11.6977 20.0585 9.85025C18.312 10.9539 15.694 11.5802 12.7738 11.5802C7.51217 11.579 3.24917 9.30631 3.24917 6.49818ZM13.9755 5.82825C13.8432 5.6305 13.665 5.47052 13.4575 5.36306C13.2312 5.25049 12.9827 5.19448 12.7318 5.19952C12.4273 5.19952 12.1532 5.25645 11.9152 5.36912C11.6915 5.47555 11.4958 5.63636 11.3447 5.83795C11.06 6.21471 10.9107 6.74653 10.9107 7.37527C10.9107 7.6539 10.9492 7.91799 11.0238 8.15423C11.0939 8.38295 11.2069 8.595 11.3563 8.77812C11.6608 9.1464 12.0948 9.34144 12.6128 9.34144C12.8847 9.34144 13.1052 9.31237 13.2907 9.25179C13.4517 9.1997 13.559 9.13065 13.6477 9.07129C13.8647 8.92114 14.0426 8.71764 14.1657 8.47889C14.2707 8.27779 14.3232 8.0876 14.3348 7.99068L14.343 7.92405H13.6045L13.6022 7.97857C13.5823 8.22812 13.2673 8.67394 12.705 8.67394C11.9023 8.67394 11.711 8.07064 11.697 7.53881H14.3873V7.47824C14.391 7.16587 14.3577 6.85422 14.2882 6.55027C14.2263 6.29216 14.1204 6.04763 13.9755 5.82825ZM12.6467 5.88883C13.2417 5.88883 13.5602 6.22197 13.6185 6.90644H11.6923C11.7215 6.3516 12.145 5.88883 12.6467 5.88883ZM18.1043 6.39158C18.0382 6.16529 17.9322 5.95373 17.7917 5.76768C17.6543 5.5899 17.48 5.44662 17.2818 5.34852C17.0677 5.24548 16.8342 5.19333 16.5982 5.19588C16.3826 5.19473 16.17 5.24794 15.9787 5.35095C15.8233 5.43427 15.6859 5.5497 15.575 5.69015V3.8851H14.8388V9.2312H15.5388V8.86656C15.6081 8.96236 15.6911 9.04653 15.785 9.11611C15.9845 9.26512 16.2307 9.34023 16.5153 9.34023C16.8222 9.34023 17.0998 9.26875 17.332 9.12701C17.5397 9.00102 17.717 8.81931 17.8547 8.58913C17.9827 8.37048 18.0753 8.13147 18.1288 7.88165C18.1824 7.64214 18.2094 7.39704 18.2093 7.15115C18.2137 6.89376 18.1782 6.6373 18.1043 6.39158ZM17.4428 7.26018C17.4428 7.67934 17.3623 8.03066 17.2072 8.27779C17.1336 8.40238 17.0295 8.50447 16.9055 8.57364C16.7815 8.64281 16.642 8.67658 16.5013 8.67151C16.0615 8.67151 15.5458 8.3529 15.5458 7.45038C15.5458 7.0191 15.5983 6.68596 15.7033 6.43276C15.855 6.06812 16.1128 5.89246 16.4862 5.89246C16.8852 5.89246 17.1535 6.05358 17.3028 6.38915C17.4265 6.66415 17.4428 7.00093 17.4428 7.26018Z" fill="#1C1C1C"/>
</svg>
