<svg width="284" height="48" viewBox="0 0 284 48" fill="none" xmlns="http://www.w3.org/2000/svg">
<path d="M169.143 11.4164H178.873V35.917H174.323V15.2315H169.143V11.4164ZM193.953 36.267C188.143 36.267 183.733 31.7169 183.733 23.6667C183.733 15.6165 188.143 11.0664 193.953 11.0664C199.799 11.0664 204.209 15.6165 204.209 23.6667C204.209 31.7169 199.799 36.267 193.953 36.267ZM193.953 32.3119C197.314 32.3119 199.624 29.5818 199.624 23.6667C199.624 17.7516 197.314 15.0215 193.953 15.0215C190.628 15.0215 188.318 17.7516 188.318 23.6667C188.318 29.5818 190.628 32.3119 193.953 32.3119ZM213.308 32.0669H224.858V35.917H206.798V32.8719L216.528 23.6317C218.908 21.3567 219.328 19.9216 219.328 18.5566C219.328 16.3165 217.788 15.0215 214.778 15.0215C212.398 15.0215 210.403 15.8265 209.038 17.5766L205.853 15.1265C207.743 12.5715 211.138 11.0664 215.163 11.0664C220.483 11.0664 223.913 13.7615 223.913 18.1016C223.913 20.4816 223.248 22.6517 219.853 25.8368L213.308 32.0669ZM235.744 11.0664C242.43 11.0664 246.35 15.3715 246.35 23.2467C246.35 31.6469 241.45 36.267 234.344 36.267C231.894 36.267 229.549 35.742 227.904 34.692L229.584 31.2619C230.914 32.1369 232.524 32.4519 234.239 32.4519C238.859 32.4519 241.765 29.5818 241.765 24.0167V23.9817C240.294 25.6968 237.949 26.5368 235.219 26.5368C230.389 26.5368 226.784 23.5967 226.784 19.0116C226.784 14.1465 230.739 11.0664 235.744 11.0664ZM236.094 22.9667C239.034 22.9667 241.065 21.1817 241.065 18.7666C241.065 16.4566 239.244 14.6365 235.989 14.6365C233.154 14.6365 231.194 16.2465 231.194 18.8016C231.194 21.3567 233.119 22.9667 236.094 22.9667ZM266.469 21.9167V25.4168H260.274V31.5419H256.529V25.4168H250.334V21.9167H256.529V15.7915H260.274V21.9167H266.469Z" fill="url(#paint0_linear_53_413)"/>
<path d="M72.8564 11.4164H82.5866V35.917H78.0365V15.2315H72.8564V11.4164ZM97.6671 36.267C91.8569 36.267 87.4468 31.7169 87.4468 23.6667C87.4468 15.6165 91.8569 11.0664 97.6671 11.0664C103.512 11.0664 107.922 15.6165 107.922 23.6667C107.922 31.7169 103.512 36.267 97.6671 36.267ZM97.6671 32.3119C101.027 32.3119 103.337 29.5818 103.337 23.6667C103.337 17.7516 101.027 15.0215 97.6671 15.0215C94.342 15.0215 92.0319 17.7516 92.0319 23.6667C92.0319 29.5818 94.342 32.3119 97.6671 32.3119ZM117.021 32.0669H128.572V35.917H110.511V32.8719L120.241 23.6317C122.622 21.3567 123.042 19.9216 123.042 18.5566C123.042 16.3165 121.502 15.0215 118.491 15.0215C116.111 15.0215 114.116 15.8265 112.751 17.5766L109.566 15.1265C111.456 12.5715 114.851 11.0664 118.876 11.0664C124.197 11.0664 127.627 13.7615 127.627 18.1016C127.627 20.4816 126.962 22.6517 123.567 25.8368L117.021 32.0669ZM147.088 23.0367C149.643 24.1917 151.078 26.1868 151.078 28.8818C151.078 33.4319 147.123 36.267 141.033 36.267C134.943 36.267 131.058 33.4319 131.058 28.8818C131.058 26.1868 132.458 24.1917 134.978 23.0367C133.018 21.9517 131.933 20.2016 131.933 17.8916C131.933 13.6915 135.608 11.0664 141.033 11.0664C146.493 11.0664 150.203 13.6915 150.203 17.8916C150.203 20.2016 149.083 21.9517 147.088 23.0367ZM141.033 14.6365C138.233 14.6365 136.413 15.8965 136.413 18.1016C136.413 20.2016 138.163 21.5317 141.033 21.5317C143.938 21.5317 145.723 20.2016 145.723 18.1016C145.723 15.8965 143.833 14.6365 141.033 14.6365ZM141.033 32.6969C144.393 32.6969 146.493 31.2269 146.493 28.7418C146.493 26.3268 144.393 24.8217 141.033 24.8217C137.673 24.8217 135.643 26.3268 135.643 28.7418C135.643 31.2269 137.673 32.6969 141.033 32.6969ZM157.137 30.3519C158.782 30.3519 159.972 31.5419 159.972 33.2569C159.972 34.0269 159.797 34.657 159.167 36.267L157.382 41.2021H154.547L155.947 35.847C154.967 35.427 154.302 34.517 154.302 33.2569C154.302 31.5069 155.527 30.3519 157.137 30.3519Z" fill="#C9C9C9"/>
<path d="M-31.72 11.4159H-21.9898V35.9165H-26.5399V15.231H-31.72V11.4159ZM-6.90936 36.2665C-12.7195 36.2665 -17.1296 31.7164 -17.1296 23.6662C-17.1296 15.616 -12.7195 11.0659 -6.90936 11.0659C-1.06422 11.0659 3.34588 15.616 3.34588 23.6662C3.34588 31.7164 -1.06422 36.2665 -6.90936 36.2665ZM-6.90936 32.3114C-3.54928 32.3114 -1.23923 29.5814 -1.23923 23.6662C-1.23923 17.7511 -3.54928 15.021 -6.90936 15.021C-10.2344 15.021 -12.5445 17.7511 -12.5445 23.6662C-12.5445 29.5814 -10.2344 32.3114 -6.90936 32.3114ZM12.445 32.0664H23.9952V35.9165H5.93484V32.8714L15.6651 23.6312C18.0451 21.3562 18.4651 19.9211 18.4651 18.5561C18.4651 16.3161 16.9251 15.021 13.915 15.021C11.535 15.021 9.53992 15.8261 8.17489 17.5761L4.98982 15.126C6.87986 12.571 10.2749 11.0659 14.3 11.0659C19.6201 11.0659 23.0502 13.761 23.0502 18.1011C23.0502 20.4812 22.3852 22.6512 18.9901 25.8363L12.445 32.0664ZM25.9588 11.4159H44.9993V14.461L35.4791 35.9165H30.614L39.8192 15.266H30.1939V19.4311H25.9588V11.4159ZM48.8351 30.3514C50.4802 30.3514 51.6702 31.5414 51.6702 33.2564C51.6702 34.0265 51.4952 34.6565 50.8652 36.2665L49.0801 41.2016H46.2451L47.6451 35.8465C46.6651 35.4265 46.0001 34.5165 46.0001 33.2564C46.0001 31.5064 47.2251 30.3514 48.8351 30.3514Z" fill="#C9C9C9"/>
<rect x="-1" width="177" height="48" fill="url(#paint1_linear_53_413)"/>
<defs>
<linearGradient id="paint0_linear_53_413" x1="226.322" y1="17.917" x2="226.322" y2="29.417" gradientUnits="userSpaceOnUse">
<stop stop-color="#B4481A"/>
<stop offset="1" stop-color="#FF7438"/>
</linearGradient>
<linearGradient id="paint1_linear_53_413" x1="176" y1="24" x2="-0.999999" y2="24" gradientUnits="userSpaceOnUse">
<stop stop-color="white" stop-opacity="0"/>
<stop offset="1" stop-color="#F5F5F5"/>
</linearGradient>
</defs>
</svg>
