<svg width="29" height="33" viewBox="0 0 29 33" fill="none" xmlns="http://www.w3.org/2000/svg">
<g clip-path="url(#clip0_53_815)">
<path d="M20.7598 24.6953C21.521 23.9551 22.7533 23.957 23.5121 24.6997C24.2708 25.4423 24.2689 26.6445 23.5076 27.3848L20.1274 30.6721C17.0088 33.7048 11.9236 33.7488 8.75243 30.7741C8.73408 30.7571 7.32206 29.4086 2.66387 24.9601C-0.435102 22.0008 -0.743836 17.2654 2.17238 14.2245L7.60964 8.55451C10.5039 5.53617 15.8392 5.20626 19.1484 7.81258L24.0867 11.7021C24.923 12.3608 25.0536 13.5562 24.3785 14.3721C23.7033 15.188 22.478 15.3155 21.6417 14.6568L16.7034 10.7672C14.9728 9.40419 11.9454 9.5914 10.452 11.1488L5.01466 16.8188C3.59498 18.2992 3.75048 20.6841 5.38654 22.2465C8.80713 25.5131 11.4434 28.0305 11.4464 28.0333C13.0951 29.5798 15.7608 29.5568 17.3796 27.9826L20.7598 24.6953Z" fill="#FFA116"/>
<path fill-rule="evenodd" clip-rule="evenodd" d="M12.5483 21.4057C11.4735 21.4057 10.6022 20.5557 10.6022 19.5071C10.6022 18.4585 11.4735 17.6084 12.5483 17.6084H26.9011C27.9759 17.6084 28.8472 18.4585 28.8472 19.5071C28.8472 20.5557 27.9759 21.4057 26.9011 21.4057H12.5483Z" fill="#B3B3B3"/>
<path fill-rule="evenodd" clip-rule="evenodd" d="M15.2362 0.601536C15.9705 -0.164203 17.2021 -0.204212 17.9869 0.512175C18.7718 1.22856 18.8129 2.43006 18.0786 3.1958L5.01473 16.819C3.59501 18.2992 3.75048 20.6841 5.38644 22.2465L11.4195 28.0081C12.1876 28.7416 12.2007 29.9438 11.4489 30.693C10.697 31.4425 9.46485 31.4552 8.69678 30.7218L2.66369 24.9601C-0.435105 22.0006 -0.743836 17.2653 2.17251 14.2246L15.2362 0.601536Z" fill="#f8f8f8"/>
</g>
<defs>
<clipPath id="clip0_53_815">
<rect width="29" height="33" fill="white"/>
</clipPath>
</defs>
</svg>
